<?xml version="1.0" encoding="UTF-8" standalone="no"?>
<!-- Generator: Adobe Illustrator 19.0.0, SVG Export Plug-In . SVG Version: 6.00 Build 0)  -->

<svg
   xmlns:dc="http://purl.org/dc/elements/1.1/"
   xmlns:cc="http://creativecommons.org/ns#"
   xmlns:rdf="http://www.w3.org/1999/02/22-rdf-syntax-ns#"
   xmlns:svg="http://www.w3.org/2000/svg"
   xmlns="http://www.w3.org/2000/svg"
   xmlns:sodipodi="http://sodipodi.sourceforge.net/DTD/sodipodi-0.dtd"
   xmlns:inkscape="http://www.inkscape.org/namespaces/inkscape"
   version="1.1"
   id="Layer_1"
   x="0px"
   y="0px"
   viewBox="0 0 971.03754 236.79723"
   xml:space="preserve"
   sodipodi:docname="logotype.svg"
   width="971.03754"
   height="236.79723"
   inkscape:version="0.92.3 (2405546, 2018-03-11)"><metadata
   id="metadata116"><rdf:RDF><cc:Work
       rdf:about=""><dc:format>image/svg+xml</dc:format><dc:type
         rdf:resource="http://purl.org/dc/dcmitype/StillImage" /><dc:title></dc:title></cc:Work></rdf:RDF></metadata><defs
   id="defs114" /><sodipodi:namedview
   pagecolor="#ffffff"
   bordercolor="#666666"
   borderopacity="1"
   objecttolerance="10"
   gridtolerance="10"
   guidetolerance="10"
   inkscape:pageopacity="0"
   inkscape:pageshadow="2"
   inkscape:window-width="1920"
   inkscape:window-height="1025"
   id="namedview112"
   showgrid="false"
   inkscape:zoom="1.572"
   inkscape:cx="499.27141"
   inkscape:cy="117.19861"
   inkscape:window-x="0"
   inkscape:window-y="1107"
   inkscape:window-maximized="1"
   inkscape:current-layer="Layer_1" />
<g
   id="g109"
   transform="matrix(1.1630512,0,0,1.1630512,-80.011817,-170.96853)"
   clip-path="none">
	<g
   id="g97">
		<g
   id="g95">
			<g
   id="g93">
				<path
   d="m 321.9,251.9 v -20.8 c 0,-37.2 19.8,-65.3 63.6,-65.3 36.8,0 59.5,25 60.9,54.7 h -27 c -1.9,-16.4 -12.3,-30.8 -33.9,-30.8 -24.3,0 -34.7,16.6 -34.7,39.9 v 23.7 c 0,23.3 10.4,39.9 34.7,39.9 21.6,0 32,-14.4 33.9,-30.8 h 27 c -1.5,29.7 -24.1,54.7 -60.9,54.7 -43.9,0.1 -63.6,-28 -63.6,-65.2 z"
   id="path83"
   inkscape:connector-curvature="0" />
				<path
   d="m 560.9,314.3 h -27 v -12.9 c -5,9.2 -17.5,15.4 -31.4,15.4 -24.3,0 -37.9,-16.8 -37.9,-41.4 v -69.3 h 28.3 v 65.3 c 0,13.7 6.4,21.6 19.1,21.6 13.1,0 20.6,-8.3 20.6,-21.8 v -65.1 h 28.3 z"
   id="path85"
   inkscape:connector-curvature="0" />
				<path
   d="m 610,301.4 v 12.9 H 583 V 162.4 h 28.3 v 55.7 c 5.8,-8.1 16.6,-14.6 31,-14.6 29.1,0 45.3,21.6 45.3,47.6 V 269 c 0,25.6 -16.4,47.6 -45.6,47.6 -15.6,0.2 -27,-6.5 -32,-15.2 z m 49.3,-33.5 v -15.4 c 0,-15.2 -8.3,-26 -24.3,-26 -12.9,0 -23.7,9.2 -23.7,25.6 v 15.8 c 0,15.2 9.6,26 23.9,26 16.4,0 24.1,-11.6 24.1,-26 z"
   id="path87"
   inkscape:connector-curvature="0" />
				<path
   d="m 718.9,350.5 10.8,-36.6 -37.4,-107.7 h 28.3 l 23.3,77.6 22,-77.6 H 794 l -47.2,144.4 h -27.9 z"
   id="path89"
   inkscape:connector-curvature="0" />
				<path
   d="m 806.6,206.1 h 27 V 219 c 5.4,-10 16.4,-15.4 31.8,-15.4 23.5,0 38.3,15.4 38.3,41.4 v 69.3 h -28.3 v -64.7 c 0,-12.5 -6,-21.4 -19.8,-21.4 -12.7,0 -20.8,7.5 -20.8,22 v 64.1 H 806.5 V 206.1 Z"
   id="path91"
   inkscape:connector-curvature="0" />
			</g>
		</g>
	</g>
	<g
   id="g107">
		<g
   id="g101">
			<polygon
   points="164.8,339 260.8,243 164.8,147 132.8,179 196.8,243 132.8,307 "
   id="polygon99" />
		</g>
		<g
   id="g105">
			<rect
   x="78.199997"
   y="220.3"
   transform="matrix(0.7071,-0.7071,0.7071,0.7071,-142.2746,142.43)"
   width="45.299999"
   height="45.299999"
   id="rect103" />
		</g>
	</g>
</g>
</svg>